<?xml version="1.0" standalone="no"?>
<!DOCTYPE svg PUBLIC "-//W3C//DTD SVG 20010904//EN"
 "http://www.w3.org/TR/2001/REC-SVG-20010904/DTD/svg10.dtd">
<svg version="1.0" xmlns="http://www.w3.org/2000/svg"
 width="1080.000000pt" height="1080.000000pt" viewBox="0 0 1080.000000 1080.000000"
 preserveAspectRatio="xMidYMid meet">
<metadata>
Created by potrace 1.14, written by Peter Selinger 2001-2017
</metadata>
<g transform="translate(0.000000,1080.000000) scale(0.100000,-0.100000)"
fill="#000000" stroke="none">
<path d="M1240 10785 c-41 -7 -91 -16 -110 -19 -69 -12 -227 -68 -315 -112
-414 -207 -708 -591 -791 -1034 -3 -19 -9 -48 -12 -65 -3 -16 -7 -1875 -8
-4130 -3 -4465 -7 -4163 52 -4375 137 -490 545 -889 1034 -1009 174 -42 -28
-40 4330 -38 2269 1 4135 5 4146 9 12 3 37 9 55 12 278 45 577 208 782 426
208 221 334 477 384 780 10 59 10 8259 0 8330 -58 415 -307 797 -666 1020
-115 71 -269 140 -370 166 -9 2 -56 14 -106 26 l-90 22 -4120 2 c-3332 1
-4134 -1 -4195 -11z"/>
</g>
</svg>
